<svg width="356" height="140" viewBox="0 0 356 140" fill="none" xmlns="http://www.w3.org/2000/svg">
<g clip-path="url(#clip0_438_169)">
<path d="M9.64 115V51.28H27.88L28.48 64.72L25 63.88C26.04 61.96 27.4 60.16 29.08 58.48C30.84 56.8 32.8 55.36 34.96 54.16C37.2 52.88 39.6 51.88 42.16 51.16C44.72 50.44 47.48 50.08 50.44 50.08C53.88 50.08 57.04 50.6 59.92 51.64C62.88 52.68 65.4 54.4 67.48 56.8C69.56 59.12 71.16 62.24 72.28 66.16L68.32 65.68L69.28 63.76C70.56 61.92 72.08 60.2 73.84 58.6C75.68 56.92 77.76 55.48 80.08 54.28C82.4 53 84.88 52 87.52 51.28C90.16 50.48 92.88 50.08 95.68 50.08C101.52 50.08 106.28 51.2 109.96 53.44C113.64 55.6 116.36 58.68 118.12 62.68C119.88 66.68 120.76 71.32 120.76 76.6V115H101.44V78.64C101.44 76.08 101.04 73.88 100.24 72.04C99.44 70.2 98.2 68.8 96.52 67.84C94.92 66.8 92.84 66.28 90.28 66.28C88.04 66.28 85.96 66.64 84.04 67.36C82.2 68.08 80.56 69.08 79.12 70.36C77.76 71.56 76.68 73 75.88 74.68C75.16 76.28 74.8 78.04 74.8 79.96V115H55.48V78.52C55.48 76.04 55.04 73.88 54.16 72.04C53.28 70.2 51.92 68.8 50.08 67.84C48.24 66.8 45.96 66.28 43.24 66.28C41.08 66.28 39.12 66.68 37.36 67.48C35.68 68.2 34.2 69.2 32.92 70.48C31.64 71.68 30.64 73 29.92 74.44C29.28 75.88 28.96 77.36 28.96 78.88V115H9.64ZM273.572 116.2C266.532 116.2 260.212 115.2 254.612 113.2C249.092 111.2 244.652 108.36 241.292 104.68L252.932 94.36C255.652 96.92 258.892 98.88 262.652 100.24C266.412 101.6 270.372 102.28 274.532 102.28C275.812 102.28 277.052 102.16 278.252 101.92C279.532 101.68 280.612 101.36 281.492 100.96C282.452 100.48 283.212 99.92 283.772 99.28C284.332 98.64 284.612 97.84 284.612 96.88C284.612 95.36 283.652 94.16 281.732 93.28C280.372 92.8 278.652 92.32 276.572 91.84C274.492 91.36 272.132 90.84 269.492 90.28C265.092 89.48 261.212 88.52 257.852 87.4C254.572 86.2 251.812 84.72 249.572 82.96C247.652 81.28 246.172 79.36 245.132 77.2C244.092 75.04 243.572 72.52 243.572 69.64C243.572 66.68 244.332 64 245.852 61.6C247.372 59.12 249.492 57.04 252.212 55.36C254.932 53.6 258.052 52.28 261.572 51.4C265.092 50.44 268.772 49.96 272.612 49.96C276.452 49.96 280.212 50.36 283.892 51.16C287.572 51.88 291.052 52.96 294.332 54.4C297.613 55.76 300.492 57.52 302.972 59.68L293.132 71.2C291.372 69.84 289.332 68.6 287.012 67.48C284.692 66.36 282.212 65.48 279.572 64.84C277.012 64.12 274.492 63.76 272.012 63.76C270.652 63.76 269.332 63.84 268.052 64C266.852 64.16 265.812 64.48 264.932 64.96C264.052 65.36 263.332 65.88 262.772 66.52C262.292 67.08 262.052 67.8 262.052 68.68C262.052 69.4 262.252 70.08 262.652 70.72C263.052 71.36 263.652 71.88 264.452 72.28C265.572 73 267.212 73.64 269.372 74.2C271.612 74.76 274.412 75.36 277.772 76C282.652 77.04 286.812 78.24 290.252 79.6C293.692 80.88 296.452 82.44 298.532 84.28C300.212 85.56 301.452 87.16 302.252 89.08C303.052 90.92 303.452 92.96 303.452 95.2C303.452 99.28 302.132 102.92 299.492 106.12C296.932 109.24 293.412 111.72 288.932 113.56C284.532 115.32 279.412 116.2 273.572 116.2ZM316.027 115V33.76H335.227V115H316.027ZM301.867 68.08V51.28H351.427V68.08H301.867Z" fill="#3D61BE"/>
<path fill-rule="evenodd" clip-rule="evenodd" d="M217 64H218.5C228.717 64 237 72.2827 237 82.5C237 92.7173 228.717 101 218.5 101H217C211.942 110.021 204.089 115 194.012 115H218.5C236.449 115 251 100.449 251 82.5C251 64.5507 236.449 50 218.5 50H194.012C204.089 50 211.942 54.9792 217 64ZM194.012 64L180 50H178.5C160.551 50 146 64.5507 146 82.5C146 100.449 160.551 115 178.5 115H180L194.012 101H178.5C168.283 101 160 92.7173 160 82.5C160 72.2827 168.283 64 178.5 64H194.012Z" fill="#FF269B"/>
<rect x="118" y="57" width="91" height="51" rx="25.5" stroke="#FF269B" stroke-width="14"/>
</g>
<defs>
<clipPath id="clip0_438_169">
<rect width="356" height="140" fill="white"/>
</clipPath>
</defs>
</svg>
