<svg width="48" height="48" viewBox="0 0 150 150" fill="none" xmlns="http://www.w3.org/2000/svg">
<rect x="0" y="0" width="100%" height="100%" fill="#0e1c41" rx="20" />
<g  transform="scale(0.7)" transform-origin="50% 50%">
<path fill-rule="evenodd" clip-rule="evenodd" d="M111 56H112.5C122.717 56 131 64.2827 131 74.5C131 84.7173 122.717 93 112.5 93H111C105.942 102.021 98.0887 107 88.0122 107H112.5C130.449 107 145 92.4493 145 74.5C145 56.5507 130.449 42 112.5 42H88.0122C98.0887 42 105.942 46.9792 111 56ZM88.0122 56L74 42H72.5C54.5507 42 40 56.5507 40 74.5C40 92.4493 54.5507 107 72.5 107H74L88.0122 93H72.5C62.2827 93 54 84.7173 54 74.5C54 64.2827 62.2827 56 72.5 56H88.0122Z" fill="#FF9E2D"/>
<rect x="12" y="49" width="91" height="51" rx="25.5" stroke="#FF9E2D" stroke-width="14"/>
</g>
</svg>
